<?xml version="1.0" encoding="iso-8859-1"?>
<!-- Generator: Adobe Illustrator 19.0.0, SVG Export Plug-In . SVG Version: 6.00 Build 0)  -->
<svg version="1.1" id="Capa_1" xmlns="http://www.w3.org/2000/svg" xmlns:xlink="http://www.w3.org/1999/xlink" x="0px" y="0px"
	 viewBox="0 0 512 512" style="enable-background:new 0 0 512 512;" xml:space="preserve">
<g>
	<g>
		<g>
			<path d="M464.271,321.594c-3.146-1.969-7.083-2.125-10.375-0.469l-91.229,45.615V160V10.667C362.667,4.771,357.896,0,352,0h-64
				c-5.896,0-10.667,4.771-10.667,10.667V160c0,5.896,4.771,10.667,10.667,10.667h33.182l-28.516,22.427
				c-3.635,2.865-5.021,7.74-3.417,12.083l11.594,31.365l-8.677-3.688c-3.281-1.406-7.083-1.052-10.052,0.927
				c-2.99,1.979-4.781,5.313-4.781,8.896v258.656c0,3.698,1.917,7.125,5.063,9.073c1.708,1.063,3.656,1.594,5.604,1.594
				c1.635,0,3.26-0.375,4.771-1.125l170.667-85.333c3.615-1.813,5.896-5.5,5.896-9.542v-85.333
				C469.333,326.969,467.417,323.542,464.271,321.594z"/>
			<path d="M245.333,0H96c-3.427,0-6.646,1.646-8.656,4.427c-2,2.781-2.552,6.365-1.458,9.615l21.333,64
				c1.448,4.354,5.521,7.292,10.115,7.292h53.333V160v181.333H128v-96c0-3.938-2.167-7.552-5.635-9.406
				c-3.448-1.854-7.667-1.646-10.948,0.531l-64,42.667c-2.969,1.979-4.75,5.313-4.75,8.875v117.333
				c0,23.531,19.135,42.667,42.667,42.667h128C236.865,448,256,428.865,256,405.333V242.677c0-3.583-1.792-6.917-4.781-8.896
				c-3-1.979-6.802-2.333-10.052-0.927l-8.677,3.688l11.594-31.365c1.604-4.344,0.219-9.219-3.417-12.083l-28.516-22.427h33.182
				c5.896,0,10.667-4.771,10.667-10.667V10.667C256,4.771,251.229,0,245.333,0z"/>
		</g>
	</g>
</g>
<g>
</g>
<g>
</g>
<g>
</g>
<g>
</g>
<g>
</g>
<g>
</g>
<g>
</g>
<g>
</g>
<g>
</g>
<g>
</g>
<g>
</g>
<g>
</g>
<g>
</g>
<g>
</g>
<g>
</g>
</svg>
