<svg height="437pt" viewBox="0 0 437 437.00436" width="437pt" xmlns="http://www.w3.org/2000/svg"><path d="m430.003906 437.003906h-423.203125c-3.796875 0-6.79687475-3.097656-6.79687475-6.800781v-64c0-13.699219 9.79687475-25.398437 23.19921875-28l22-4.097656c3.699219-.699219 7.300781 1.699219 8 5.398437.699219 3.699219-1.699219 7.300782-5.402344 8l-22 4.101563c-7 1.300781-12.097656 7.398437-12.097656 14.5v57.097656h409.597656v-57.398437c0-7-5-13.101563-11.898437-14.5l-16.800782-3.398438c-3.699218-.703125-6.097656-4.300781-5.398437-8 .699219-3.703125 4.300781-6.101562 8-5.402344l16.800781 3.402344c13.296875 2.597656 22.898438 14.398438 22.898438 27.898438v64.199218c0 3.902344-3.101563 7-6.898438 7zm0 0"/><path d="m340.800781 125.503906c.300781-.800781.5-1.699218.5-2.597656v-116c0-2.902344-1.796875-5.5-4.597656-6.5-2.699219-1-5.800781-.101562-7.601563 2.199219l-31.5 40.097656c-21.398437-18.097656-49.097656-29-79.199218-29-30.199219 0-57.800782 10.902344-79.199219 29l-31.5-40.097656c-1.800781-2.300781-4.902344-3.199219-7.601563-2.199219-2.800781 1-4.597656 3.5-4.597656 6.5v116.097656c0 .902344.199219 1.800782.5 2.601563-.300781 3.699219-.5 7.300781-.5 11.097656v191.101563c0 3.800781 3.097656 6.800781 6.796875 6.800781 3.703125 0 6.800781-3.101563 6.800781-6.800781v-191.199219c0-60.199219 49-109.199219 109.199219-109.199219 60.203125 0 109.203125 49 109.203125 109.199219v191.097656c0 3.800781 3.097656 6.800781 6.796875 6.800781 3.703125 0 6.800781-3.097656 6.800781-6.800781v-191.097656c.199219-3.800781 0-7.402344-.300781-11.101563zm0 0"/><path d="m303.101562 424.503906-61.398437-41c-1.101563-.699218-2.402344-1.097656-3.800781-1.097656h-35.101563c-1.398437 0-2.796875.398438-3.898437 1.199219l-58.5 40.898437c-2.398438 1.699219-3.5 4.800782-2.601563 7.601563.902344 2.800781 3.5 4.800781 6.5 4.800781h155.101563c3 0 5.699218-2 6.5-4.800781.898437-2.902344-.300782-6-2.800782-7.601563zm0 0"/><path d="m254.703125 369.605469c-1.300781 0-2.601563-.101563-3.800781-.199219l-33.699219-3.203125-31.199219 3.101563c-12 1.601562-24-4.398438-28.703125-14.5l-29-44c-9.5-11.398438-13.796875-25.300782-11.898437-39.300782l3.5-39.800781c.199218-1.898437 1.199218-3.699219 2.699218-4.898437 1.5-1.199219 3.5-1.601563 5.402344-1.199219l90.398438 18.097656 90.398437-18.097656c1.902344-.402344 3.902344.097656 5.402344 1.199219 1.597656 1.199218 2.5 2.898437 2.699219 4.898437l3.5 40.101563c1.800781 13.699218-2.398438 27.601562-11.898438 39l-29 44.199218c-4.203125 8.902344-14 14.601563-24.800781 14.601563zm-37.601563-17.199219h.699219l34.5 3.296875h.203125c6.296875.902344 12.597656-2.097656 14.699219-6.898437.199219-.398438.300781-.699219.597656-1.101563l29.601563-45c.199218-.199219.300781-.5.5-.699219 7.199218-8.398437 10.398437-18.699218 9-28.898437l-2.898438-32.800781-84.203125 16.898437c-.898437.203125-1.796875.203125-2.699219 0l-84.199218-16.898437-2.898438 32.5c-1.402344 10.5 1.796875 20.800781 9 29.300781.199219.199219.398438.398437.5.699219l29.5 44.800781c.199219.300781.398438.699219.597656 1.097656 2.101563 4.800781 8.402344 7.800781 14.800782 6.902344l32.101562-3.199219zm0 0"/><path d="m88.703125 396.003906c-2.699219 0-5.199219-1.597656-6.300781-4.097656l-18.699219-43.601562h-36.402344c-2.796875 0-5.199219-1.699219-6.296875-4.199219-1.101562-2.601563-.5-5.5 1.5-7.402344l47.796875-47.796875c1.402344-1.402344 3.300781-2.101562 5.203125-2 1.898438.097656 3.699219 1 5 2.5l53.796875 67.296875 33.101563 19.800781c2.5 1.5 3.800781 4.5 3.101562 7.402344-.703125 2.898438-3.101562 5-6 5.296875l-75.101562 6.800781c-.300782 0-.5 0-.699219 0zm-45-61.398437h24.5c2.699219 0 5.199219 1.597656 6.300781 4.097656l18.5 43.203125 49.296875-4.5-16.199219-9.703125c-.699218-.398437-1.300781-1-1.800781-1.597656l-49.898437-62.300781zm0 0"/><path d="m348.101562 396.003906c-.199218 0-.398437 0-.597656 0l-75.101562-6.800781c-2.898438-.296875-5.398438-2.398437-6-5.296875-.699219-2.902344.601562-5.902344 3.101562-7.402344l33.097656-19.800781 53.800782-67.296875c1.199218-1.5 3-2.402344 5-2.5 2-.101562 3.800781.597656 5.199218 2l47.800782 47.796875c2 2 2.5 4.902344 1.5 7.402344-1.101563 2.597656-3.5 4.199219-6.300782 4.199219h-36.5l-18.699218 43.601562c-1.101563 2.5-3.601563 4.097656-6.300782 4.097656zm-53.597656-18.597656 49.296875 4.5 18.5-43.203125c1.101563-2.5 3.5-4.097656 6.300781-4.097656h24.5l-30.699218-30.699219-49.898438 62.296875c-.5.601563-1.101562 1.203125-1.800781 1.601563zm12.597656-15.5"/><path d="m197.902344 211.703125-34.101563-34.199219h-25.597656l7.800781 11.699219c5.898438 8.902344 15.199219 15.101563 25.597656 17.203125zm0 0"/><path d="m240.601562 211.703125 34.101563-34.097656h25.597656l-7.796875 11.699219c-5.902344 8.898437-15.203125 15.101562-25.601562 17.199218zm0 0"/><path d="m245.703125 225.90625h-54.601563c-3.800781 0-6.800781-3.101562-6.800781-6.800781 0-3.800781 3.101563-6.800781 6.800781-6.800781h54.601563c3.800781 0 6.800781 3.101562 6.800781 6.800781 0 3.800781-3 6.800781-6.800781 6.800781zm0 0"/><path d="m245.703125 279.90625h-54.601563c-3.800781 0-6.800781-3.101562-6.800781-6.800781s3.101563-6.800781 6.800781-6.800781h54.601563c3.800781 0 6.800781 3.101562 6.800781 6.800781s-3 6.800781-6.800781 6.800781zm0 0"/><path d="m218.402344 396.003906c-.300782 0-.601563 0-.898438-.097656l-54.601562-7.300781c-3.699219-.5-6.398438-3.902344-5.898438-7.699219.5-3.703125 4-6.402344 7.699219-5.902344l53.699219 7.199219 53.699218-7.199219c3.699219-.5 7.199219 2.101563 7.699219 5.902344.5 3.699219-2.097656 7.199219-5.898437 7.699219l-54.601563 7.300781c-.296875.097656-.597656.097656-.898437.097656zm0 0"/></svg>